<svg xmlns="http://www.w3.org/2000/svg" xmlns:xlink="http://www.w3.org/1999/xlink" viewBox="0 0 82.02 73.81"><defs><style>.cls-1{fill:url(#linear-gradient);}.cls-2{fill:url(#linear-gradient-2);}.cls-3{fill:url(#linear-gradient-3);}.cls-4{fill:url(#linear-gradient-4);}.cls-5{fill:url(#linear-gradient-5);}.cls-6{fill:url(#linear-gradient-6);}.cls-7{fill:url(#linear-gradient-7);}.cls-8{fill:url(#linear-gradient-8);}.cls-9{fill:url(#linear-gradient-9);}.cls-10{fill:url(#linear-gradient-10);}.cls-11{fill:url(#linear-gradient-11);}.cls-12{fill:url(#linear-gradient-12);}.cls-13{fill:url(#linear-gradient-13);}.cls-14{fill:url(#linear-gradient-14);}.cls-15{fill:#f6e5ac;}</style><linearGradient id="linear-gradient" x1="36.62" y1="25.36" x2="47.78" y2="25.36" gradientUnits="userSpaceOnUse"><stop offset="0.22" stop-color="#f7eab2"/><stop offset="1" stop-color="#e7c060"/></linearGradient><linearGradient id="linear-gradient-2" x1="25.85" y1="50.99" x2="58.55" y2="50.99" xlink:href="#linear-gradient"/><linearGradient id="linear-gradient-3" x1="25.85" y1="56.7" x2="58.55" y2="56.7" xlink:href="#linear-gradient"/><linearGradient id="linear-gradient-4" x1="31.74" y1="34.35" x2="52.66" y2="34.35" xlink:href="#linear-gradient"/><linearGradient id="linear-gradient-5" x1="31.74" y1="38" x2="52.66" y2="38" xlink:href="#linear-gradient"/><linearGradient id="linear-gradient-6" x1="16.47" y1="70.47" x2="20.76" y2="70.47" gradientUnits="userSpaceOnUse"><stop offset="0.42" stop-color="#f7eab2"/><stop offset="1" stop-color="#e7c060"/></linearGradient><linearGradient id="linear-gradient-7" x1="21.67" y1="68.73" x2="24.82" y2="68.73" xlink:href="#linear-gradient-6"/><linearGradient id="linear-gradient-8" x1="25.25" y1="70.38" x2="32.13" y2="70.38" xlink:href="#linear-gradient-6"/><linearGradient id="linear-gradient-9" x1="32.68" y1="70.47" x2="37.97" y2="70.47" xlink:href="#linear-gradient-6"/><linearGradient id="linear-gradient-10" x1="38.96" y1="70.47" x2="44.28" y2="70.47" xlink:href="#linear-gradient-6"/><linearGradient id="linear-gradient-11" x1="48.43" y1="69.91" x2="53.22" y2="69.91" xlink:href="#linear-gradient-6"/><linearGradient id="linear-gradient-12" x1="54.07" y1="69.98" x2="58.76" y2="69.98" xlink:href="#linear-gradient-6"/><linearGradient id="linear-gradient-13" x1="60.43" y1="69.91" x2="63.29" y2="69.91" xlink:href="#linear-gradient-6"/><linearGradient id="linear-gradient-14" x1="65.03" y1="70.06" x2="69.62" y2="70.06" xlink:href="#linear-gradient-6"/></defs><g id="Layer_2" data-name="Layer 2"><g id="Слой_4" data-name="Слой 4"><path class="cls-1" d="M42.2,30.49l-.78-.78c-2.91-2.57-4.8-4.29-4.8-6.42a3,3,0,0,1,3.07-3.07,3.38,3.38,0,0,1,2.51,1.17,3.36,3.36,0,0,1,2.51-1.17,3,3,0,0,1,3.07,3.07c0,2.13-1.89,3.85-4.8,6.42Z"/><path class="cls-2" d="M58.55,53c0,4-3.94,7.31-8.81,7.31H34.67c-4.88,0-8.82-3.27-8.82-7.31v-4.1c0-4,3.94-7.31,8.82-7.31H49.74c4.87,0,8.81,3.27,8.81,7.31Z"/><rect class="cls-3" x="25.85" y="53.04" width="32.71" height="7.3"/><path class="cls-4" d="M52.66,35.66c0,2.58-2.53,4.67-5.64,4.67H37.38c-3.11,0-5.64-2.09-5.64-4.67V33c0-2.58,2.53-4.67,5.64-4.67H47c3.11,0,5.64,2.09,5.64,4.67Z"/><rect class="cls-5" x="31.74" y="35.66" width="20.91" height="4.67"/><path class="cls-6" d="M20.29,67.14v2.14h-.23a2.76,2.76,0,0,0-.67-1.37,1.51,1.51,0,0,0-1-.36,1.12,1.12,0,0,0-.77.25.74.74,0,0,0-.3.56,1,1,0,0,0,.22.66,2.4,2.4,0,0,0,.86.6l1,.49a2,2,0,0,1,1.39,1.79,1.7,1.7,0,0,1-.65,1.38,2.24,2.24,0,0,1-1.45.53,4.92,4.92,0,0,1-1.32-.21,1.18,1.18,0,0,0-.37-.07.27.27,0,0,0-.25.18H16.5V71.47h.22a2.48,2.48,0,0,0,.74,1.44,1.74,1.74,0,0,0,1.21.49,1,1,0,0,0,.77-.28.83.83,0,0,0,.3-.67,1.06,1.06,0,0,0-.33-.79,5.7,5.7,0,0,0-1.33-.82,3.82,3.82,0,0,1-1.3-.89,1.52,1.52,0,0,1-.31-1,1.73,1.73,0,0,1,.53-1.3,1.88,1.88,0,0,1,1.38-.52,3.17,3.17,0,0,1,.9.16,2,2,0,0,0,.46.1.32.32,0,0,0,.18-.05.73.73,0,0,0,.14-.21Z"/><path class="cls-7" d="M23.87,67.14v5A2.29,2.29,0,0,0,24,73a.6.6,0,0,0,.25.29,1.31,1.31,0,0,0,.62.1v.24H21.76v-.24a1.43,1.43,0,0,0,.62-.09.58.58,0,0,0,.25-.3,2.29,2.29,0,0,0,.09-.79V69.77a9,9,0,0,0-.06-1.33.5.5,0,0,0-.15-.3.41.41,0,0,0-.28-.09,1.42,1.42,0,0,0-.47.11l-.09-.25,1.89-.77Zm-.57-3.29a.71.71,0,0,1,.49.2.7.7,0,0,1,.2.49.68.68,0,0,1-.69.7.7.7,0,0,1-.5-.2.69.69,0,0,1-.21-.5.67.67,0,0,1,.21-.49A.69.69,0,0,1,23.3,63.85Z"/><path class="cls-8" d="M27.44,68.47a2.93,2.93,0,0,1,2.1-1.33,1.46,1.46,0,0,1,.89.26,1.7,1.7,0,0,1,.59.85,3.9,3.9,0,0,1,.15,1.26v2.68a2.19,2.19,0,0,0,.1.82.55.55,0,0,0,.24.26,1.28,1.28,0,0,0,.62.1v.24H29v-.24h.13a1,1,0,0,0,.62-.14.71.71,0,0,0,.24-.39,3.77,3.77,0,0,0,0-.65V69.62a2.61,2.61,0,0,0-.23-1.25.79.79,0,0,0-.75-.39,2.26,2.26,0,0,0-1.62.89v3.32a2.42,2.42,0,0,0,.07.79.54.54,0,0,0,.26.29,1.52,1.52,0,0,0,.69.1v.24H25.35v-.24h.14a.71.71,0,0,0,.64-.25,1.69,1.69,0,0,0,.17-.93V69.86a9.23,9.23,0,0,0-.05-1.38.57.57,0,0,0-.16-.34.41.41,0,0,0-.28-.09,1.27,1.27,0,0,0-.46.11l-.1-.25,1.89-.77h.3Z"/><path class="cls-9" d="M38,71.23a3.37,3.37,0,0,1-1,1.91,2.39,2.39,0,0,1-1.64.67,2.42,2.42,0,0,1-1.87-.9,3.54,3.54,0,0,1-.79-2.43,3.33,3.33,0,0,1,.88-2.41,2.79,2.79,0,0,1,2.11-.93,2.32,2.32,0,0,1,1.53.49,1.37,1.37,0,0,1,.6,1,.56.56,0,0,1-.17.42.65.65,0,0,1-.47.16.7.7,0,0,1-.61-.26,1.12,1.12,0,0,1-.16-.55.89.89,0,0,0-.27-.61,1,1,0,0,0-.67-.21,1.37,1.37,0,0,0-1.11.51,2.7,2.7,0,0,0-.55,1.77,3.59,3.59,0,0,0,.55,2,1.69,1.69,0,0,0,1.49.87A1.85,1.85,0,0,0,37,72.28a3.3,3.3,0,0,0,.74-1.15Z"/><path class="cls-10" d="M39.93,69.69a3.24,3.24,0,0,0,.68,2.2,2.09,2.09,0,0,0,1.62.8,1.8,1.8,0,0,0,1.07-.34,2.54,2.54,0,0,0,.77-1.17l.21.14A3.29,3.29,0,0,1,43.44,73a2.22,2.22,0,0,1-1.74.78,2.57,2.57,0,0,1-1.94-.88,3.44,3.44,0,0,1-.8-2.38A3.54,3.54,0,0,1,39.79,68a2.67,2.67,0,0,1,2.07-.91,2.3,2.3,0,0,1,1.74.7,2.55,2.55,0,0,1,.68,1.86Zm0-.39h2.91a2.78,2.78,0,0,0-.14-.86,1.49,1.49,0,0,0-.51-.6,1.29,1.29,0,0,0-.71-.22,1.44,1.44,0,0,0-1,.44A2,2,0,0,0,39.93,69.3Z"/><path class="cls-11" d="M53.22,72.22l-.51,1.39H48.43v-.19a19,19,0,0,0,2.66-2.82,3.56,3.56,0,0,0,.77-2,1.59,1.59,0,0,0-.42-1.14,1.39,1.39,0,0,0-1-.44,1.6,1.6,0,0,0-1,.31,1.78,1.78,0,0,0-.62.92h-.2a2.48,2.48,0,0,1,.68-1.52,1.94,1.94,0,0,1,1.39-.53,2,2,0,0,1,1.47.57,1.76,1.76,0,0,1,.59,1.33,2.63,2.63,0,0,1-.25,1.11,7.36,7.36,0,0,1-1.29,1.83c-.89,1-1.44,1.56-1.66,1.76h1.89a4.68,4.68,0,0,0,.81,0,.87.87,0,0,0,.42-.17,1.08,1.08,0,0,0,.33-.37Z"/><path class="cls-12" d="M54.07,70a5.54,5.54,0,0,1,.37-2.14,3,3,0,0,1,1-1.33,1.68,1.68,0,0,1,1-.35,1.88,1.88,0,0,1,1.5.85,4.53,4.53,0,0,1,.83,2.86,5.43,5.43,0,0,1-.37,2.14,2.81,2.81,0,0,1-.92,1.28,1.88,1.88,0,0,1-1.09.4,2,2,0,0,1-1.73-1.22A5,5,0,0,1,54.07,70Zm1,.13a7,7,0,0,0,.36,2.45c.21.53.51.8.92.8a.9.9,0,0,0,.59-.27,1.57,1.57,0,0,0,.47-.86,10.32,10.32,0,0,0,.25-2.6,7.15,7.15,0,0,0-.26-2.07,1.78,1.78,0,0,0-.49-.87.83.83,0,0,0-1.18.15,2.77,2.77,0,0,0-.53,1.4A13.27,13.27,0,0,0,55.12,70.16Z"/><path class="cls-13" d="M60.43,67.07l1.77-.86h.18v6.13a3.67,3.67,0,0,0,0,.75.38.38,0,0,0,.22.23,1.62,1.62,0,0,0,.65.1v.19H60.56v-.19a2,2,0,0,0,.67-.09.45.45,0,0,0,.2-.21,2.79,2.79,0,0,0,.06-.78V68.42a6.62,6.62,0,0,0-.05-1,.47.47,0,0,0-.14-.25.36.36,0,0,0-.24-.08,1.49,1.49,0,0,0-.55.17Z"/><path class="cls-14" d="M65.73,66.36h3.89v.2l-2.42,7.2h-.6l2.17-6.53h-2a1.81,1.81,0,0,0-.86.15,1.77,1.77,0,0,0-.72.76L65,68.08Z"/></g><g id="Слой_5" data-name="Слой 5"><path class="cls-15" d="M4.14,43.62c.39.1.78.19,1.17.26l1.13.18,1,.12.88,0c.36,0,.66,0,.92,0a5.72,5.72,0,0,0,.64,0,1.88,1.88,0,0,0,.43-.09.57.57,0,0,0,.24-.14.47.47,0,0,0,.12-.2,1.93,1.93,0,0,0,0-.27,3.28,3.28,0,0,0,0-.61,5.74,5.74,0,0,0-.16-.66l.27-.08a3.38,3.38,0,0,1,.27.54l.24.67a6.3,6.3,0,0,1,.17.69,2,2,0,0,1,.06.57,2.48,2.48,0,0,1,0,.29.55.55,0,0,1-.12.24,1.05,1.05,0,0,1-.28.19,2,2,0,0,1-.48.14,6.57,6.57,0,0,1-.77.09c-.31,0-.68,0-1.12,0H7.89l-1,0-1.18-.06c-.41,0-.83-.06-1.27-.1a.34.34,0,0,1-.23-.11A.59.59,0,0,1,4,45.08,1.71,1.71,0,0,1,4,44.51,2.36,2.36,0,0,1,4.14,43.62Zm-2.33.53a1.64,1.64,0,0,1-.09.47,1.13,1.13,0,0,1-.2.34.74.74,0,0,1-.28.22.72.72,0,0,1-.32.08.73.73,0,0,1-.41-.12,1.23,1.23,0,0,1-.29-.31,1.28,1.28,0,0,1-.17-.42A1.82,1.82,0,0,1,0,44a1.72,1.72,0,0,1,.08-.48,1.31,1.31,0,0,1,.19-.35.9.9,0,0,1,.27-.21.59.59,0,0,1,.32-.06.89.89,0,0,1,.35.11,1.14,1.14,0,0,1,.31.27,1.39,1.39,0,0,1,.21.4A1.44,1.44,0,0,1,1.81,44.15Z"/><path class="cls-15" d="M1,36.7a16.38,16.38,0,0,0,1.89.89c.66.27,1.32.51,2,.72,0-.2.07-.4.11-.58s.07-.37.1-.53.07-.31.09-.44,0-.25.07-.33a6,6,0,0,0,.14-1h.3a.3.3,0,0,1,.24.3,2.75,2.75,0,0,1-.08.67c-.05.27-.13.57-.22.9s-.18.71-.26,1.12l1,.31,1,.26.84.19.68.14a7.58,7.58,0,0,0,1,.11,2.43,2.43,0,0,0,.75-.08,1.2,1.2,0,0,0,.53-.33,1.4,1.4,0,0,0,.27-.63,2.32,2.32,0,0,0,0-.66,5.75,5.75,0,0,0-.13-.87.52.52,0,0,1,.37-.06c.08.25.16.49.22.74a6.53,6.53,0,0,1,.16.71c0,.22.06.44.07.65a2.62,2.62,0,0,1,0,.57,1.58,1.58,0,0,1-.23.63,1.17,1.17,0,0,1-.51.44,2.37,2.37,0,0,1-.9.22,6.21,6.21,0,0,1-1.37-.07l-1-.15-1-.2c-.34-.06-.67-.14-1-.22l-1-.27c0,.35-.06.67-.07,1a6.3,6.3,0,0,0,0,.78.11.11,0,0,1-.08,0c-.07,0-.13-.06-.18-.16a1.09,1.09,0,0,1-.14-.4,3.3,3.3,0,0,1-.07-.6,6.55,6.55,0,0,1,0-.76c-.69-.21-1.35-.42-2-.64S1.5,38.67,1,38.46a.48.48,0,0,1-.2-.17A.71.71,0,0,1,.72,38a1.39,1.39,0,0,1,0-.3,2.58,2.58,0,0,1,0-.29A2.16,2.16,0,0,1,.82,37,1.71,1.71,0,0,1,1,36.7Z"/><path class="cls-15" d="M4.45,25.71A17.79,17.79,0,0,0,6.08,27c.58.42,1.16.82,1.74,1.19l.24-.48.22-.43L8.46,27l.14-.27A5.85,5.85,0,0,0,9,25.91l.16,0,.13.05a.29.29,0,0,1,.15.33,2,2,0,0,1-.22.56c-.11.22-.25.47-.41.73s-.33.57-.51.9l.93.57.87.5.77.41c.24.12.44.23.62.31a7.23,7.23,0,0,0,.92.38,2.16,2.16,0,0,0,.74.15,1,1,0,0,0,.58-.14,1.08,1.08,0,0,0,.4-.46,2.12,2.12,0,0,0,.18-.57,5.67,5.67,0,0,0,.07-.8.54.54,0,0,1,.37,0c0,.24,0,.48.05.72s0,.45,0,.66a5.13,5.13,0,0,1-.08.6,2.35,2.35,0,0,1-.16.49,1.3,1.3,0,0,1-.35.48,1.13,1.13,0,0,1-.59.23,2.81,2.81,0,0,1-.92-.07,6.94,6.94,0,0,1-1.31-.46c-.29-.12-.58-.26-.88-.41s-.61-.29-.91-.45l-.92-.49-.88-.51c-.11.29-.21.56-.29.81a6.7,6.7,0,0,0-.15.68H7.23A.27.27,0,0,1,7.08,31a1.11,1.11,0,0,1,0-.39,3,3,0,0,1,.06-.54c.05-.2.11-.41.18-.64-.62-.39-1.2-.76-1.75-1.13s-1-.72-1.43-1A.51.51,0,0,1,4,27.05a.7.7,0,0,1-.05-.25.78.78,0,0,1,0-.26A1.06,1.06,0,0,1,4,26.29,2.17,2.17,0,0,1,4.22,26,1.75,1.75,0,0,1,4.45,25.71Z"/><path class="cls-15" d="M11.13,23.55c.19.13.39.28.61.45l.64.51.64.54c.22.17.42.34.61.5l.53.43.42.31a1.53,1.53,0,0,0,.87.33.69.69,0,0,0,.56-.3,1.23,1.23,0,0,0,.09-1,6,6,0,0,0-.61-1.5A17.43,17.43,0,0,0,14.32,22a15.53,15.53,0,0,0-1.65-1.88c.21-.33.44-.65.66-1l.06-.06c.23.24.47.5.73.76l.78.8.79.75c.25.25.5.47.72.66a9.47,9.47,0,0,0,1.1.86,3.9,3.9,0,0,0,.79.4.93.93,0,0,0,.53.05.69.69,0,0,0,.33-.17,1,1,0,0,0,.11-.17,1,1,0,0,0,.08-.19.77.77,0,0,0,0-.19l0-.16.27.07a2.8,2.8,0,0,1,0,.41,1.94,1.94,0,0,1-.07.42,1.56,1.56,0,0,1-.15.39,1.23,1.23,0,0,1-.23.33,1.08,1.08,0,0,1-.42.3,1.24,1.24,0,0,1-.59.06,2.36,2.36,0,0,1-.77-.25,5.31,5.31,0,0,1-1-.65l-.34-.3-.36-.34-.39-.39L15,22.07l-.05,0a18.75,18.75,0,0,1,1.24,2,8.83,8.83,0,0,1,.65,1.5A2.86,2.86,0,0,1,17,26.65a1.61,1.61,0,0,1-.22.74,1.54,1.54,0,0,1-.36.36,1.41,1.41,0,0,1-.51.18,1.87,1.87,0,0,1-.68-.07,3.25,3.25,0,0,1-.85-.41,8.45,8.45,0,0,1-.7-.49l-.82-.62-.9-.69c-.31-.23-.62-.45-.94-.66l-.34-.2a.63.63,0,0,0-.27-.08.37.37,0,0,0-.23.05A.66.66,0,0,0,10,25a2.25,2.25,0,0,0-.21.46c-.07.19-.14.4-.2.63L9.19,26c.06-.33.13-.62.2-.9s.14-.5.21-.71.13-.38.19-.52a2.71,2.71,0,0,1,.14-.29.69.69,0,0,1,.24-.24.45.45,0,0,1,.28-.06.83.83,0,0,1,.32.08A3.9,3.9,0,0,1,11.13,23.55Z"/><path class="cls-15" d="M18.06,20.7a5.63,5.63,0,0,1-.69-.83,6,6,0,0,1-.51-1,4.79,4.79,0,0,1-.28-1,3.49,3.49,0,0,1,0-1.07,2.94,2.94,0,0,1,.37-1,3.09,3.09,0,0,1,.76-.87,2.46,2.46,0,0,1,1.16-.52,2.51,2.51,0,0,1,1.16.08A3.09,3.09,0,0,1,21.1,15a4.42,4.42,0,0,1,.85.88,7,7,0,0,1,.53.93,6.18,6.18,0,0,1,.36,1,5.4,5.4,0,0,1,.18,1,3.53,3.53,0,0,1,0,1,3,3,0,0,1-.29.89,2.53,2.53,0,0,1-.59.73,2,2,0,0,1-1,.44,2.87,2.87,0,0,1-1,0A4.21,4.21,0,0,1,19,21.44,4.7,4.7,0,0,1,18.06,20.7Zm.5-1.16a5,5,0,0,0,.53.49,4.47,4.47,0,0,0,.59.41,5,5,0,0,0,.62.3,2.36,2.36,0,0,0,.61.15,1.61,1.61,0,0,0,.58,0,1.13,1.13,0,0,0,.5-.25,1,1,0,0,0,.35-.48,1.5,1.5,0,0,0,.07-.6,2.9,2.9,0,0,0-.13-.68,5.83,5.83,0,0,0-.64-1.33c-.13-.21-.26-.39-.38-.56a6.17,6.17,0,0,0-.48-.54,3.7,3.7,0,0,0-1.17-.79,2.15,2.15,0,0,0-.64-.16,1.67,1.67,0,0,0-.63.06,1.6,1.6,0,0,0-.59.31,1.32,1.32,0,0,0-.43.56,1.47,1.47,0,0,0-.09.66,2.14,2.14,0,0,0,.15.69,4.17,4.17,0,0,0,.33.67,3.75,3.75,0,0,0,.42.62C18.28,19.22,18.42,19.39,18.56,19.54Z"/><path class="cls-15" d="M30,1.86q.15,1.31.36,2.67c.15.91.31,1.81.5,2.7s.38,1.76.6,2.61.46,1.66.71,2.43c.12.37.23.68.32.94s.18.49.25.67.15.31.21.41a.71.71,0,0,0,.18.22.29.29,0,0,0,.18.08l.21,0a1.71,1.71,0,0,0,.42-.19A2.66,2.66,0,0,0,34.4,14l.15.24a3.09,3.09,0,0,1-.31.39,3.87,3.87,0,0,1-.41.4c-.15.13-.29.24-.43.34a1.65,1.65,0,0,1-.4.2.47.47,0,0,1-.23,0,.39.39,0,0,1-.21-.06,1.17,1.17,0,0,1-.2-.19,3.08,3.08,0,0,1-.2-.34,7.06,7.06,0,0,1-.31-.66c-.11-.25-.21-.53-.32-.84s-.23-.65-.32-1a9.75,9.75,0,0,1-.24-1h0c0,.74-.05,1.41-.12,2a12.34,12.34,0,0,1-.28,1.64,4.4,4.4,0,0,1-.44,1.16,1.48,1.48,0,0,1-.61.61,1.12,1.12,0,0,1-.72.06,1.84,1.84,0,0,1-.71-.36,3.43,3.43,0,0,1-.66-.66,6.52,6.52,0,0,1-.57-.87A5.4,5.4,0,0,1,26.34,14a5,5,0,0,1-.19-1.2,4.59,4.59,0,0,1,.1-1.18,3.46,3.46,0,0,1,.42-1.07,3.39,3.39,0,0,1,.72-.88,3.27,3.27,0,0,1,1-.59,3.41,3.41,0,0,1,.84-.19,3.65,3.65,0,0,1,.92.06c-.18-.56-.35-1.12-.52-1.7s-.33-1.14-.48-1.7-.29-1.07-.4-1.56-.22-1-.29-1.34a.36.36,0,0,1,0-.23.48.48,0,0,1,.15-.2A1.2,1.2,0,0,1,28.9,2l.3-.11A2,2,0,0,1,30,1.86Zm.23,7.49a3.09,3.09,0,0,0-1.46.14A2.59,2.59,0,0,0,28,10a2.43,2.43,0,0,0-.55.69,3,3,0,0,0-.27.83,3.4,3.4,0,0,0,0,.9,5.73,5.73,0,0,0,.17.92,5.52,5.52,0,0,0,.34.88l.18.33a4.13,4.13,0,0,0,.25.38,2.54,2.54,0,0,0,.29.36,1.71,1.71,0,0,0,.32.29,1,1,0,0,0,.33.17.47.47,0,0,0,.33,0,1,1,0,0,0,.51-.51,4.23,4.23,0,0,0,.34-.92,9.44,9.44,0,0,0,.21-1.19q.07-.66.09-1.32a11.08,11.08,0,0,0,0-1.3A5.61,5.61,0,0,0,30.25,9.35Z"/><path class="cls-15" d="M34.37,12a5.79,5.79,0,0,1-.16-1,4.9,4.9,0,0,1,.06-1.08,4.56,4.56,0,0,1,.29-1,3.53,3.53,0,0,1,.56-.89A3.25,3.25,0,0,1,36,7.24a3.08,3.08,0,0,1,1.11-.35A2.45,2.45,0,0,1,38.31,7a2.57,2.57,0,0,1,1,.64,3,3,0,0,1,.63,1,3.84,3.84,0,0,1,.27,1.17,5.29,5.29,0,0,1,0,1,6.1,6.1,0,0,1-.21,1.05,6,6,0,0,1-.38,1,4,4,0,0,1-.54.83,2.86,2.86,0,0,1-.7.6,2.38,2.38,0,0,1-.89.33,1.9,1.9,0,0,1-1-.11,2.56,2.56,0,0,1-.88-.57,4,4,0,0,1-.69-.9A5,5,0,0,1,34.37,12Zm1-.72a4.54,4.54,0,0,0,.21.69,5.37,5.37,0,0,0,.29.65,4.58,4.58,0,0,0,.38.56,2.27,2.27,0,0,0,.45.43,1.54,1.54,0,0,0,.51.26,1.16,1.16,0,0,0,.56,0,1,1,0,0,0,.54-.24,1.65,1.65,0,0,0,.38-.48,2.83,2.83,0,0,0,.22-.64,4.51,4.51,0,0,0,.12-.72,6.15,6.15,0,0,0,0-.74c0-.24,0-.46,0-.66a5.73,5.73,0,0,0-.13-.7A4.73,4.73,0,0,0,38.65,9a3.4,3.4,0,0,0-.35-.59A2.21,2.21,0,0,0,37.83,8a2,2,0,0,0-.58-.27,1.8,1.8,0,0,0-.66,0,1.36,1.36,0,0,0-.65.27,1.7,1.7,0,0,0-.42.5,2.64,2.64,0,0,0-.22.67,4.4,4.4,0,0,0-.06.73,5.85,5.85,0,0,0,0,.73C35.31,10.82,35.35,11,35.39,11.23Z"/><path class="cls-15" d="M43.93.17c-.1.58-.19,1.18-.28,1.79s-.17,1.22-.24,1.84-.14,1.25-.2,1.88-.11,1.25-.15,1.86S43,8.75,43,9.34s0,1.15,0,1.69c0,.34,0,.63,0,.87s0,.45,0,.61a2.63,2.63,0,0,0,.07.41.91.91,0,0,0,.1.24.33.33,0,0,0,.15.11.6.6,0,0,0,.2,0,1.62,1.62,0,0,0,.47-.07,3,3,0,0,0,.52-.19c0,.09.05.18.07.27a2.54,2.54,0,0,1-.42.29,5,5,0,0,1-.51.27,4.24,4.24,0,0,1-.52.2,1.65,1.65,0,0,1-.44.08.53.53,0,0,1-.38-.13,1,1,0,0,1-.22-.46,3.88,3.88,0,0,1-.12-.82c0-.34,0-.76-.06-1.24,0-.18,0-.44,0-.77V9.58c0-.44,0-.91,0-1.43s0-1.06,0-1.62,0-1.12,0-1.68,0-1.12.07-1.64,0-1,.07-1.5.05-.88.07-1.24A.35.35,0,0,1,42.3.25a.6.6,0,0,1,.21-.14A1,1,0,0,1,42.8,0a1.84,1.84,0,0,1,.33,0A2.21,2.21,0,0,1,43.93.17Z"/><path class="cls-15" d="M45.79,12.18a1.62,1.62,0,0,0,.13.68,1.32,1.32,0,0,0,.33.49,1.39,1.39,0,0,0,.45.31,1.7,1.7,0,0,0,.52.15,1.55,1.55,0,0,0,.48,0,1.47,1.47,0,0,0,.43-.16,1.12,1.12,0,0,0,.34-.31,1.14,1.14,0,0,0,.19-.45.89.89,0,0,0,0-.49,1.41,1.41,0,0,0-.25-.42,2.49,2.49,0,0,0-.41-.37l-.51-.35L47,10.92a5,5,0,0,1-.47-.33,3.09,3.09,0,0,1-.43-.37,2.79,2.79,0,0,1-.35-.42,2.05,2.05,0,0,1-.22-.5,1.7,1.7,0,0,1,0-.6,1.57,1.57,0,0,1,.17-.65A1.7,1.7,0,0,1,46,7.54a2.44,2.44,0,0,1,.55-.38,3.35,3.35,0,0,1,.65-.24,4.2,4.2,0,0,1,.71-.11,4,4,0,0,1,.7,0,3.35,3.35,0,0,1,.8.2A2.3,2.3,0,0,1,50,7.4a1.3,1.3,0,0,1,.37.49.92.92,0,0,1,.06.57,1.52,1.52,0,0,1-.09.25,1,1,0,0,1-.19.23.73.73,0,0,1-.29.15.87.87,0,0,1-.4,0A1.87,1.87,0,0,1,49.05,9V8.93a1.3,1.3,0,0,0,.15-.28,1.77,1.77,0,0,0,.08-.25A.68.68,0,0,0,49.21,8,1.07,1.07,0,0,0,49,7.68a1.52,1.52,0,0,0-.38-.2,2.41,2.41,0,0,0-.43-.1,2.24,2.24,0,0,0-.69,0,2,2,0,0,0-.53.21,1.22,1.22,0,0,0-.34.34.82.82,0,0,0-.15.41.92.92,0,0,0,.1.52,1.78,1.78,0,0,0,.35.44,3.77,3.77,0,0,0,.52.41l.6.4q.35.22.69.48a3.27,3.27,0,0,1,.57.54,1.84,1.84,0,0,1,.34.65,1.46,1.46,0,0,1,0,.78,2.17,2.17,0,0,1-.38.89,2.36,2.36,0,0,1-.67.59,2.59,2.59,0,0,1-.83.31,2.77,2.77,0,0,1-.91,0,2.72,2.72,0,0,1-.47-.08,3.75,3.75,0,0,1-.47-.17,4.16,4.16,0,0,1-.42-.23,2,2,0,0,1-.35-.3,1.28,1.28,0,0,1-.23-.37,1,1,0,0,1-.07-.42.68.68,0,0,1,.1-.34.53.53,0,0,1,.21-.21,1,1,0,0,1,.29-.12,1.22,1.22,0,0,1,.33,0Z"/><path class="cls-15" d="M55,14.35s0,0,0,.06l.06.08,0,.09a.11.11,0,0,1,0,.08s0,0,0,0a4.91,4.91,0,0,1-.76.47,4,4,0,0,1-.74.28,2.8,2.8,0,0,1-.68.1,2.13,2.13,0,0,1-.63-.09,2,2,0,0,1-.86-.48,2.71,2.71,0,0,1-.57-.84A3.84,3.84,0,0,1,50.64,13a4.27,4.27,0,0,1,.1-1.27,5,5,0,0,1,.36-1,4.83,4.83,0,0,1,.58-1A4.37,4.37,0,0,1,52.45,9a4.17,4.17,0,0,1,.94-.54,3.46,3.46,0,0,1,1.07-.23,3.26,3.26,0,0,1,1.14.15,2.35,2.35,0,0,1,.7.32,1.87,1.87,0,0,1,.49.48,1.32,1.32,0,0,1,.24.59,1.24,1.24,0,0,1-.09.65,1.41,1.41,0,0,1-.66.74,2.91,2.91,0,0,1-1.1.33,6.93,6.93,0,0,1-1.45,0c-.54,0-1.1-.09-1.7-.18l0,.09a4.29,4.29,0,0,0-.15,1.2,3.13,3.13,0,0,0,.16,1,2,2,0,0,0,.42.73,1.36,1.36,0,0,0,.65.41,1.8,1.8,0,0,0,.87,0A3.72,3.72,0,0,0,55,14.35Zm.57-4.18a1.39,1.39,0,0,0,.07-.44,1.08,1.08,0,0,0-.1-.41A.9.9,0,0,0,55.32,9a1.39,1.39,0,0,0-.4-.21,1.76,1.76,0,0,0-.64-.06,2,2,0,0,0-.58.18,1.92,1.92,0,0,0-.5.36,3.89,3.89,0,0,0-.43.48,4.65,4.65,0,0,0-.34.56,5.78,5.78,0,0,0-.26.58,10.83,10.83,0,0,0,1.28.14,4,4,0,0,0,1,0,1.91,1.91,0,0,0,.73-.27A1.08,1.08,0,0,0,55.6,10.17Z"/><path class="cls-15" d="M59.85,16.15a1.86,1.86,0,0,0-.18.68,1.76,1.76,0,0,0,.09.58,1.42,1.42,0,0,0,.29.47,1.61,1.61,0,0,0,.4.34,1.77,1.77,0,0,0,.45.18,1.81,1.81,0,0,0,.46,0,1.15,1.15,0,0,0,.44-.15,1.13,1.13,0,0,0,.36-.33.92.92,0,0,0,.18-.47,1.16,1.16,0,0,0-.05-.48,2.71,2.71,0,0,0-.22-.51c-.09-.17-.2-.35-.31-.53l-.3-.48a4.85,4.85,0,0,1-.29-.49,3.82,3.82,0,0,1-.23-.51A2.44,2.44,0,0,1,60.8,14a1.64,1.64,0,0,1,0-.54,1.85,1.85,0,0,1,.2-.57,1.71,1.71,0,0,1,.43-.52A1.78,1.78,0,0,1,62,12a2.86,2.86,0,0,1,.66-.13,3.29,3.29,0,0,1,.7,0,4.26,4.26,0,0,1,.7.19,4,4,0,0,1,.62.31,3.33,3.33,0,0,1,.65.51,2,2,0,0,1,.41.59,1.43,1.43,0,0,1,.13.59,1,1,0,0,1-.2.55.85.85,0,0,1-.46.32.72.72,0,0,1-.33,0,.85.85,0,0,1-.37-.14,1.93,1.93,0,0,1-.35-.3l0-.05.26-.2a1,1,0,0,0,.17-.2.68.68,0,0,0,.13-.4,1,1,0,0,0-.1-.38A1.62,1.62,0,0,0,64.4,13a2.11,2.11,0,0,0-.35-.26,2,2,0,0,0-.63-.26,1.64,1.64,0,0,0-.58,0,1.16,1.16,0,0,0-.46.17,1,1,0,0,0-.31.32.93.93,0,0,0-.13.51,1.91,1.91,0,0,0,.13.55,4.5,4.5,0,0,0,.3.57l.38.62c.15.23.29.47.42.71a3.36,3.36,0,0,1,.29.73,2.05,2.05,0,0,1,0,.74,1.64,1.64,0,0,1-.32.72,2.12,2.12,0,0,1-.73.65,2.33,2.33,0,0,1-.86.27A2.42,2.42,0,0,1,60.7,19a3,3,0,0,1-.85-.34,2.28,2.28,0,0,1-.39-.27,1.88,1.88,0,0,1-.35-.34,2.55,2.55,0,0,1-.29-.38,1.69,1.69,0,0,1-.19-.41,1.21,1.21,0,0,1-.05-.42.89.89,0,0,1,.34-.69.65.65,0,0,1,.29-.11,1.15,1.15,0,0,1,.32,0,1.21,1.21,0,0,1,.3.11Z"/><path class="cls-15" d="M64.58,17.82a5.47,5.47,0,0,1,.74-.79,5.1,5.1,0,0,1,.89-.63,4.8,4.8,0,0,1,1-.43,3.53,3.53,0,0,1,1.07-.13,3.39,3.39,0,0,1,1.08.21,3.09,3.09,0,0,1,1,.62,2.55,2.55,0,0,1,.7,1.06,2.51,2.51,0,0,1,.09,1.15,3,3,0,0,1-.4,1.11,3.88,3.88,0,0,1-.76,1,6.25,6.25,0,0,1-.86.65,7.47,7.47,0,0,1-1,.49,5.53,5.53,0,0,1-1,.31,3.86,3.86,0,0,1-1,.1,3.26,3.26,0,0,1-.94-.17,2.36,2.36,0,0,1-.82-.48,1.81,1.81,0,0,1-.58-.85,2.7,2.7,0,0,1-.11-1,3.91,3.91,0,0,1,.29-1.1A4.73,4.73,0,0,1,64.58,17.82Zm1.23.31a6.27,6.27,0,0,0-.42.59,4.31,4.31,0,0,0-.33.64,4,4,0,0,0-.22.64,2.18,2.18,0,0,0-.06.61,1.64,1.64,0,0,0,.12.55,1.15,1.15,0,0,0,.33.46,1,1,0,0,0,.54.27,1.62,1.62,0,0,0,.62,0,3.19,3.19,0,0,0,.66-.22,6,6,0,0,0,.65-.37,7.35,7.35,0,0,0,.61-.44c.19-.16.35-.3.5-.45a6.17,6.17,0,0,0,.48-.54,4.39,4.39,0,0,0,.38-.61,2.78,2.78,0,0,0,.24-.64A2.09,2.09,0,0,0,70,18a1.61,1.61,0,0,0-.15-.61,1.58,1.58,0,0,0-.4-.54,1.48,1.48,0,0,0-.63-.33,1.68,1.68,0,0,0-.67,0,2.67,2.67,0,0,0-.68.25,5.23,5.23,0,0,0-.63.41,5.39,5.39,0,0,0-.56.5C66.09,17.81,65.94,18,65.81,18.13Z"/><path class="cls-15" d="M75.87,25.15a2.57,2.57,0,0,1-.45.74,3,3,0,0,1-.62.5,2.86,2.86,0,0,1-.74.32,3.09,3.09,0,0,1-.8.11,3,3,0,0,1-.79-.07,3.36,3.36,0,0,1-.76-.24A3.09,3.09,0,0,1,71,26.1a2.73,2.73,0,0,1-.54-.58l-.12-.17-.1-.19A1.06,1.06,0,0,0,70,25a1.08,1.08,0,0,0-.29-.09,1.13,1.13,0,0,0-.26,0,.51.51,0,0,0-.21.1.54.54,0,0,0-.21.37,1.52,1.52,0,0,0,0,.51,5.38,5.38,0,0,0,.19.63c.09.22.18.46.27.71s.16.44.23.66a5.33,5.33,0,0,1,.17.66,2.64,2.64,0,0,1,0,.62,1.79,1.79,0,0,1-.09.57,1.39,1.39,0,0,1-.27.49,1.89,1.89,0,0,1-.5.41,2.82,2.82,0,0,1-.82.31,3.14,3.14,0,0,1-.86.08,4.07,4.07,0,0,1-.84-.13,4.28,4.28,0,0,1-.8-.31,4.16,4.16,0,0,1-.71-.47,3.41,3.41,0,0,1-.58-.62,3.16,3.16,0,0,1-.28-.45A4.18,4.18,0,0,1,64,28.5a2.62,2.62,0,0,1-.12-.57,2,2,0,0,1,0-.6,1.9,1.9,0,0,1,.21-.59,2.35,2.35,0,0,1,.45-.57,2.31,2.31,0,0,1,.54-.36,2.19,2.19,0,0,1,.59-.21,3,3,0,0,1,.6-.06,2.88,2.88,0,0,1,.59.06,3.08,3.08,0,0,1,.54.16,2.84,2.84,0,0,1,.46.24h0c0-.12,0-.25-.05-.38a1.64,1.64,0,0,1,0-.38,1.23,1.23,0,0,1,.12-.37,1,1,0,0,1,.28-.33.89.89,0,0,1,.43-.22,1.49,1.49,0,0,1,.47,0,1.66,1.66,0,0,1,.45.12l.41.18a2.89,2.89,0,0,1-.09-.77,2.34,2.34,0,0,1,.12-.74,2.6,2.6,0,0,1,.31-.68,3.06,3.06,0,0,1,1.66-1.2,3.05,3.05,0,0,1,1.24-.07,3.23,3.23,0,0,1,1.2.47,3.4,3.4,0,0,1,1,.95,3.94,3.94,0,0,1,.25.43,4.14,4.14,0,0,1,.15.41c0,.12.07.24.1.36s0,.22,0,.33,0,.3.07.45a1.41,1.41,0,0,0,.19.45,1.5,1.5,0,0,0,.27.34,1.2,1.2,0,0,0,.35.22,1.09,1.09,0,0,0,.4.07.94.94,0,0,0,.41-.13.1.1,0,0,0,0,0l.06,0,.08,0a1.43,1.43,0,0,1-.08.74.79.79,0,0,1-.34.41.67.67,0,0,1-.35.1.86.86,0,0,1-.34-.09,1.21,1.21,0,0,1-.32-.25A2,2,0,0,1,76.2,26a3,3,0,0,1-.29-.81Zm-7.82,1.4a2.13,2.13,0,0,0-.58-.3,1.88,1.88,0,0,0-.66-.09,2.1,2.1,0,0,0-.69.13,2.38,2.38,0,0,0-.65.4,2,2,0,0,0-.55.68,1.93,1.93,0,0,0-.19.72,1.7,1.7,0,0,0,.08.68,2.08,2.08,0,0,0,.28.58,2.24,2.24,0,0,0,.61.58,2.46,2.46,0,0,0,.79.31,2.31,2.31,0,0,0,.87,0,2.21,2.21,0,0,0,.88-.33,1.16,1.16,0,0,0,.36-.33,1.26,1.26,0,0,0,.16-.42,1.93,1.93,0,0,0,0-.48q0-.25-.12-.54a7.27,7.27,0,0,0-.27-.78C68.27,27.11,68.16,26.84,68.05,26.55Zm3.1-1.1a1.25,1.25,0,0,0,.35.34,1.78,1.78,0,0,0,.43.18,1.83,1.83,0,0,0,.47,0,2.69,2.69,0,0,0,1-.25,2.82,2.82,0,0,0,.42-.23,3,3,0,0,0,.46-.36,3.31,3.31,0,0,0,.39-.44,2.58,2.58,0,0,0,.29-.51,2.12,2.12,0,0,0,.14-.55,1.83,1.83,0,0,0,0-.57,1.65,1.65,0,0,0-.27-.57,1.6,1.6,0,0,0-.41-.41,1.63,1.63,0,0,0-.47-.2,1.6,1.6,0,0,0-.49,0,2.05,2.05,0,0,0-.48.1,2.72,2.72,0,0,0-.46.21,2.65,2.65,0,0,0-.39.26,4,4,0,0,0-.43.4,3.91,3.91,0,0,0-.35.48,2.81,2.81,0,0,0-.26.52,2.3,2.3,0,0,0-.13.55,1.87,1.87,0,0,0,0,.53A1.46,1.46,0,0,0,71.15,25.45Z"/><path class="cls-15" d="M77.12,28.63a1.68,1.68,0,0,0,.31-.19.56.56,0,0,0,.16-.2.43.43,0,0,0,0-.22.9.9,0,0,0-.08-.25,2.54,2.54,0,0,0-.26-.42c-.12-.16-.26-.33-.42-.52l.29-.25c.2.19.38.39.56.58s.33.38.47.55a4.87,4.87,0,0,1,.34.47,1.93,1.93,0,0,1,.2.34.77.77,0,0,1,0,.57.82.82,0,0,1-.49.43l-.22.09-.45.17L77,30l-.76.28-.83.3-.85.3v0a10.17,10.17,0,0,1,2.4-.11,5.9,5.9,0,0,1,1.74.38,3.22,3.22,0,0,1,1.12.71,2.4,2.4,0,0,1,.55.92,1.74,1.74,0,0,1,.08.68,1.7,1.7,0,0,1-.17.66,1.61,1.61,0,0,1-.49.56,2.38,2.38,0,0,1-.83.4l-.41.1-.57.11-.66.13-.7.14-.64.14c-.2,0-.38.09-.53.14s-.46.15-.62.22a1.52,1.52,0,0,0-.35.22.45.45,0,0,0-.14.26.76.76,0,0,0,0,.33,2.37,2.37,0,0,0,.2.54,3.92,3.92,0,0,0,.33.54l-.24.16a2.51,2.51,0,0,1-.4-.4,8.06,8.06,0,0,1-.75-1.06,2.45,2.45,0,0,1-.21-.5.6.6,0,0,1,0-.46,1,1,0,0,1,.32-.36,3.36,3.36,0,0,1,.54-.29l.7-.26,1-.29,1-.23.83-.19.59-.15a1.33,1.33,0,0,0,.77-.54.91.91,0,0,0,.06-.76,1.18,1.18,0,0,0-.46-.6,3.22,3.22,0,0,0-.89-.45,5.87,5.87,0,0,0-1.21-.25,9.44,9.44,0,0,0-1.41,0,11.21,11.21,0,0,0-1.49.23,10.08,10.08,0,0,0-1.47.47c-.17-.29-.35-.58-.53-.86l0-.07q.47-.18,1-.42l1.09-.47,1.08-.49,1-.45.83-.38Z"/><path class="cls-15" d="M77,38.11A4.56,4.56,0,0,1,78,38a3.91,3.91,0,0,1,1.08.15,4.08,4.08,0,0,1,1,.45,3.52,3.52,0,0,1,.88.76,3.82,3.82,0,0,1,.66,1.09A4.7,4.7,0,0,1,82,41.88a3.87,3.87,0,0,1-.19,1.59,3.25,3.25,0,0,1-.69,1.19,3,3,0,0,1-1,.72,3.08,3.08,0,0,1-1.19.24,4.33,4.33,0,0,1-1-.14,5.47,5.47,0,0,1-2-1,4.86,4.86,0,0,1-.79-.78,4.63,4.63,0,0,1-.58-1,4.13,4.13,0,0,1-.29-1.15,3,3,0,0,1,.13-1.26,3.14,3.14,0,0,1,.59-1,3.77,3.77,0,0,1,.92-.76A3.93,3.93,0,0,1,77,38.11Zm.71,1.29a3.55,3.55,0,0,0-.69.19,3.93,3.93,0,0,0-.66.3,4.16,4.16,0,0,0-.57.41,2.66,2.66,0,0,0-.45.51,2.23,2.23,0,0,0-.27.61,2,2,0,0,0-.06.7,1.69,1.69,0,0,0,.22.72,1.89,1.89,0,0,0,.46.52,2.73,2.73,0,0,0,.63.36,4.29,4.29,0,0,0,.72.22,4.57,4.57,0,0,0,.73.1,5,5,0,0,0,.66,0,4.49,4.49,0,0,0,.71-.1,3.18,3.18,0,0,0,.67-.25,3.06,3.06,0,0,0,.61-.4,2.33,2.33,0,0,0,.47-.56,2.3,2.3,0,0,0,.29-.7,2.57,2.57,0,0,0,.06-.84,2,2,0,0,0-.25-.83,2,2,0,0,0-.49-.57,2,2,0,0,0-.66-.33,4.85,4.85,0,0,0-.74-.15,6.09,6.09,0,0,0-.74,0Z"/></g></g></svg>