<svg xmlns="http://www.w3.org/2000/svg" xmlns:xlink="http://www.w3.org/1999/xlink" viewBox="0 0 128.29 100.18"><defs><style>.cls-1{fill:url(#linear-gradient);}.cls-2{fill:url(#linear-gradient-2);}.cls-3{fill:url(#linear-gradient-3);}.cls-4{fill:url(#linear-gradient-4);}.cls-5{fill:url(#linear-gradient-5);}.cls-6{fill:url(#radial-gradient);}.cls-7{fill:url(#radial-gradient-2);}.cls-8{fill:url(#radial-gradient-3);}.cls-9{fill:url(#radial-gradient-4);}.cls-10{fill:url(#radial-gradient-5);}.cls-11{fill:url(#radial-gradient-6);}.cls-12{fill:url(#radial-gradient-7);}.cls-13{fill:url(#radial-gradient-8);}.cls-14{fill:url(#radial-gradient-9);}.cls-15{font-size:21px;fill:#f1d186;font-family:Gabriola;}</style><linearGradient id="linear-gradient" x1="57.57" y1="5.13" x2="68.73" y2="5.13" gradientUnits="userSpaceOnUse"><stop offset="0.13" stop-color="#f7eab2"/><stop offset="0.73" stop-color="#e7c060"/></linearGradient><linearGradient id="linear-gradient-2" x1="46.79" y1="30.76" x2="79.5" y2="30.76" xlink:href="#linear-gradient"/><linearGradient id="linear-gradient-3" x1="46.79" y1="36.47" x2="79.5" y2="36.47" xlink:href="#linear-gradient"/><linearGradient id="linear-gradient-4" x1="52.69" y1="14.12" x2="73.6" y2="14.12" xlink:href="#linear-gradient"/><linearGradient id="linear-gradient-5" x1="52.69" y1="17.77" x2="73.6" y2="17.77" xlink:href="#linear-gradient"/><radialGradient id="radial-gradient" cx="39.56" cy="50.25" r="2.8" gradientUnits="userSpaceOnUse"><stop offset="0.55" stop-color="#f7eab2"/><stop offset="1" stop-color="#e7c060"/></radialGradient><radialGradient id="radial-gradient-2" cx="44.19" cy="48.51" r="3.63" xlink:href="#radial-gradient"/><radialGradient id="radial-gradient-3" cx="49.64" cy="50.15" r="3.34" xlink:href="#radial-gradient"/><radialGradient id="radial-gradient-4" cx="56.27" cy="50.25" r="3.01" xlink:href="#radial-gradient"/><radialGradient id="radial-gradient-5" cx="62.57" cy="50.24" r="3.02" xlink:href="#radial-gradient"/><radialGradient id="radial-gradient-6" cx="71.77" cy="49.69" r="3.12" xlink:href="#radial-gradient"/><radialGradient id="radial-gradient-7" cx="77.36" cy="49.75" r="3.14" xlink:href="#radial-gradient"/><radialGradient id="radial-gradient-8" cx="82.81" cy="49.69" r="2.81" xlink:href="#radial-gradient"/><radialGradient id="radial-gradient-9" cx="88.27" cy="49.84" r="3.08" xlink:href="#radial-gradient"/></defs><g id="Layer_2" data-name="Layer 2"><g id="Слой_4" data-name="Слой 4"><path class="cls-1" d="M63.15,10.26l-.78-.78c-2.91-2.57-4.8-4.29-4.8-6.42A3,3,0,0,1,60.64,0a3.4,3.4,0,0,1,2.51,1.16A3.39,3.39,0,0,1,65.66,0a3,3,0,0,1,3.07,3.06c0,2.13-1.89,3.85-4.8,6.42Z"/><path class="cls-2" d="M79.5,32.82c0,4-3.94,7.3-8.82,7.3H55.61c-4.87,0-8.82-3.27-8.82-7.3V28.71c0-4,4-7.31,8.82-7.31H70.68c4.88,0,8.82,3.27,8.82,7.31Z"/><rect class="cls-3" x="46.79" y="32.82" width="32.71" height="7.3"/><path class="cls-4" d="M73.6,15.44c0,2.58-2.52,4.67-5.64,4.67H58.33c-3.11,0-5.64-2.09-5.64-4.67V12.81c0-2.58,2.53-4.67,5.64-4.67H68c3.12,0,5.64,2.09,5.64,4.67Z"/><rect class="cls-5" x="52.69" y="15.44" width="20.91" height="4.67"/><path class="cls-6" d="M41.23,46.91v2.15H41a2.84,2.84,0,0,0-.67-1.38,1.53,1.53,0,0,0-1-.36,1.16,1.16,0,0,0-.78.25.76.76,0,0,0-.29.57,1,1,0,0,0,.22.66,2.54,2.54,0,0,0,.86.59l1,.49a2,2,0,0,1,1.4,1.79,1.72,1.72,0,0,1-.65,1.39,2.25,2.25,0,0,1-1.45.52,5.23,5.23,0,0,1-1.32-.2,1.23,1.23,0,0,0-.37-.07.27.27,0,0,0-.25.18h-.23V51.24h.23a2.56,2.56,0,0,0,.73,1.45,1.82,1.82,0,0,0,1.22.49,1.1,1.1,0,0,0,.77-.28.89.89,0,0,0,.3-.67,1.09,1.09,0,0,0-.33-.8A6.07,6.07,0,0,0,39,50.61a3.85,3.85,0,0,1-1.31-.89,1.58,1.58,0,0,1-.3-1A1.71,1.71,0,0,1,38,47.44a1.87,1.87,0,0,1,1.38-.53,3.11,3.11,0,0,1,.89.17,2.47,2.47,0,0,0,.47.09.27.27,0,0,0,.17,0,1,1,0,0,0,.15-.22Z"/><path class="cls-7" d="M44.81,46.91V52a2.18,2.18,0,0,0,.09.78.63.63,0,0,0,.25.3,1.46,1.46,0,0,0,.62.09v.25H42.71v-.25a1.43,1.43,0,0,0,.62-.09.61.61,0,0,0,.25-.29,2.29,2.29,0,0,0,.09-.79V49.54a8.75,8.75,0,0,0-.06-1.32.53.53,0,0,0-.15-.31.47.47,0,0,0-.28-.08,1.37,1.37,0,0,0-.47.1l-.09-.25,1.89-.77Zm-.57-3.29a.65.65,0,0,1,.49.21.7.7,0,0,1,0,1,.69.69,0,1,1-.49-1.19Z"/><path class="cls-8" d="M48.38,48.25a3,3,0,0,1,2.11-1.34,1.53,1.53,0,0,1,.89.26A1.81,1.81,0,0,1,52,48a3.94,3.94,0,0,1,.15,1.26V52a2.39,2.39,0,0,0,.09.81.65.65,0,0,0,.25.27,1.46,1.46,0,0,0,.62.09v.25H50v-.25h.13a1,1,0,0,0,.61-.13.71.71,0,0,0,.25-.4A3.54,3.54,0,0,0,51,52V49.39a2.57,2.57,0,0,0-.23-1.24.8.8,0,0,0-.75-.39,2.29,2.29,0,0,0-1.63.89V52a2.36,2.36,0,0,0,.08.79.62.62,0,0,0,.26.29,1.69,1.69,0,0,0,.69.09v.25H46.3v-.25h.13a.74.74,0,0,0,.65-.24,1.78,1.78,0,0,0,.17-.93V49.63a11.25,11.25,0,0,0,0-1.38.63.63,0,0,0-.16-.33.43.43,0,0,0-.28-.09,1.24,1.24,0,0,0-.46.1l-.11-.25,1.9-.77h.29Z"/><path class="cls-9" d="M58.92,51a3.4,3.4,0,0,1-1,1.91,2.37,2.37,0,0,1-3.51-.23,3.54,3.54,0,0,1-.8-2.43,3.39,3.39,0,0,1,.88-2.41,2.83,2.83,0,0,1,2.12-.93,2.38,2.38,0,0,1,1.53.49,1.4,1.4,0,0,1,.6,1,.58.58,0,0,1-.17.43.7.7,0,0,1-.47.16.72.72,0,0,1-.61-.26,1,1,0,0,1-.16-.55.88.88,0,0,0-.28-.62,1,1,0,0,0-.66-.2,1.39,1.39,0,0,0-1.11.5,2.71,2.71,0,0,0-.56,1.78,3.62,3.62,0,0,0,.56,2,1.68,1.68,0,0,0,1.49.86A1.8,1.8,0,0,0,58,52.05a3,3,0,0,0,.73-1.15Z"/><path class="cls-10" d="M60.88,49.47a3.27,3.27,0,0,0,.68,2.2,2.06,2.06,0,0,0,1.61.79,1.74,1.74,0,0,0,1.08-.34A2.44,2.44,0,0,0,65,51l.22.14a3.32,3.32,0,0,1-.84,1.71,2.26,2.26,0,0,1-1.74.77,2.54,2.54,0,0,1-1.94-.88,3.37,3.37,0,0,1-.81-2.37,3.59,3.59,0,0,1,.83-2.52,2.7,2.7,0,0,1,2.08-.9,2.36,2.36,0,0,1,1.74.69,2.59,2.59,0,0,1,.68,1.87Zm0-.4h2.91a2.71,2.71,0,0,0-.14-.85,1.41,1.41,0,0,0-.52-.61,1.32,1.32,0,0,0-.71-.22,1.41,1.41,0,0,0-1,.45A1.94,1.94,0,0,0,60.88,49.07Z"/><path class="cls-11" d="M74.16,52l-.5,1.4H69.38v-.2A19.43,19.43,0,0,0,72,50.38a3.53,3.53,0,0,0,.78-2,1.59,1.59,0,0,0-.43-1.13,1.34,1.34,0,0,0-1-.45,1.56,1.56,0,0,0-1,.32,1.85,1.85,0,0,0-.63.92h-.19a2.42,2.42,0,0,1,.68-1.52A1.89,1.89,0,0,1,71.65,46a2.05,2.05,0,0,1,1.48.56,1.82,1.82,0,0,1,.59,1.34,2.6,2.6,0,0,1-.26,1.1,7.25,7.25,0,0,1-1.28,1.84c-.89,1-1.44,1.55-1.66,1.75h1.89a5.16,5.16,0,0,0,.81,0,1.2,1.2,0,0,0,.42-.17A1.24,1.24,0,0,0,74,52Z"/><path class="cls-12" d="M75,49.8a5.51,5.51,0,0,1,.38-2.13,3,3,0,0,1,1-1.34,1.72,1.72,0,0,1,1-.34,1.89,1.89,0,0,1,1.5.85,4.49,4.49,0,0,1,.82,2.85,5.72,5.72,0,0,1-.36,2.15,2.81,2.81,0,0,1-.93,1.28,1.86,1.86,0,0,1-1.09.4,2,2,0,0,1-1.72-1.23A4.93,4.93,0,0,1,75,49.8Zm1,.14a6.92,6.92,0,0,0,.37,2.44c.21.53.51.8.91.8a.91.91,0,0,0,.6-.26,1.63,1.63,0,0,0,.47-.87,10.23,10.23,0,0,0,.25-2.59,7.11,7.11,0,0,0-.26-2.07,1.78,1.78,0,0,0-.5-.87.79.79,0,0,0-.53-.18.89.89,0,0,0-.65.32,2.81,2.81,0,0,0-.52,1.4A13.44,13.44,0,0,0,76.06,49.94Z"/><path class="cls-13" d="M81.38,46.85,83.15,46h.17v6.12a3.5,3.5,0,0,0,.05.76.43.43,0,0,0,.21.23,1.58,1.58,0,0,0,.66.09v.2H81.51v-.2a1.52,1.52,0,0,0,.66-.09.45.45,0,0,0,.21-.2,2.83,2.83,0,0,0,.06-.79V48.2a6.62,6.62,0,0,0,0-1,.44.44,0,0,0-.14-.25.38.38,0,0,0-.24-.08,1.43,1.43,0,0,0-.55.16Z"/><path class="cls-14" d="M86.68,46.13h3.89v.21l-2.42,7.2h-.6L89.72,47h-2a2,2,0,0,0-.86.14,1.83,1.83,0,0,0-.72.76L86,47.85Z"/></g><g id="Слой_5" data-name="Слой 5"><text class="cls-15" transform="translate(0 83.99)">it tuo dolse sogno</text></g></g></svg>