<svg xmlns="http://www.w3.org/2000/svg" xmlns:xlink="http://www.w3.org/1999/xlink" viewBox="0 0 226.69 72.34"><defs><style>.cls-1{fill:url(#Новый_образец_градиента_копия);}.cls-2{fill:url(#Новый_образец_градиента_копия-2);}.cls-3{fill:url(#Новый_образец_градиента_копия-3);}.cls-4{fill:url(#Новый_образец_градиента_копия-4);}.cls-5{fill:url(#Новый_образец_градиента_копия-5);}.cls-6{fill:url(#Новый_образец_градиента_копия-6);}.cls-7{fill:url(#Новый_образец_градиента_копия-7);}.cls-8{fill:url(#Новый_образец_градиента_копия-8);}.cls-9{fill:url(#Новый_образец_градиента_копия-9);}.cls-10{fill:url(#Новый_образец_градиента_копия-10);}.cls-11{fill:url(#Новый_образец_градиента_копия-11);}.cls-12{fill:url(#Новый_образец_градиента_копия-12);}.cls-13{fill:url(#Новый_образец_градиента_копия-13);}.cls-14{fill:url(#Новый_образец_градиента_копия-14);}</style><radialGradient id="Новый_образец_градиента_копия" cx="28.17" cy="0.22" r="22.49" gradientTransform="translate(0 12.11) scale(0.95 0.83)" gradientUnits="userSpaceOnUse"><stop offset="0.53" stop-color="#f7eab2"/><stop offset="1" stop-color="#e7c060"/></radialGradient><radialGradient id="Новый_образец_градиента_копия-2" cx="210.39" cy="0.22" r="22.63" xlink:href="#Новый_образец_градиента_копия"/><radialGradient id="Новый_образец_градиента_копия-3" cx="69.17" cy="-0.16" r="11.42" xlink:href="#Новый_образец_градиента_копия"/><radialGradient id="Новый_образец_градиента_копия-4" cx="94.96" cy="0.05" r="12.31" xlink:href="#Новый_образец_градиента_копия"/><radialGradient id="Новый_образец_градиента_копия-5" cx="120.5" cy="-0.16" r="11.42" xlink:href="#Новый_образец_градиента_копия"/><radialGradient id="Новый_образец_градиента_копия-6" cx="141.34" cy="0.01" r="9.7" xlink:href="#Новый_образец_градиента_копия"/><radialGradient id="Новый_образец_градиента_копия-7" cx="159.07" cy="0.01" r="9.57" xlink:href="#Новый_образец_градиента_копия"/><radialGradient id="Новый_образец_градиента_копия-8" cx="172.86" cy="0.01" r="8.35" xlink:href="#Новый_образец_градиента_копия"/><radialGradient id="Новый_образец_градиента_копия-9" cx="77.89" cy="44.1" r="11.56" xlink:href="#Новый_образец_градиента_копия"/><radialGradient id="Новый_образец_градиента_копия-10" cx="94.08" cy="51.56" r="7.95" xlink:href="#Новый_образец_градиента_копия"/><radialGradient id="Новый_образец_градиента_копия-11" cx="111.03" cy="44.1" r="12.17" xlink:href="#Новый_образец_градиента_копия"/><radialGradient id="Новый_образец_градиента_копия-12" cx="127.36" cy="51.56" r="6.54" xlink:href="#Новый_образец_градиента_копия"/><radialGradient id="Новый_образец_градиента_копия-13" cx="141.41" cy="51.56" r="7.23" xlink:href="#Новый_образец_градиента_копия"/><radialGradient id="Новый_образец_градиента_копия-14" cx="158.01" cy="58.75" r="12.73" xlink:href="#Новый_образец_градиента_копия"/></defs><g id="Layer_2" data-name="Layer 2"><g id="Слой_4" data-name="Слой 4"><path class="cls-1" d="M53.39,24.12v-.88a4.27,4.27,0,0,1,0-1.13c0-.21,0-.43.06-.64-3.36-.07-7.88-.74-8.58-4.85a99.58,99.58,0,0,1-.62-11.75c0-.17,0-.33,0-.49l.44-1.57A3.53,3.53,0,0,1,48,1.09h5.45a3.71,3.71,0,0,1,0-.47V.53a4.55,4.55,0,0,1,0-.53H48.12a4.63,4.63,0,0,0-4.84,4C41.93,7.85,37.39,9.16,33,9.72a12.3,12.3,0,0,0-4.24-1.58A55.83,55.83,0,0,0,17.06,7.05,56,56,0,0,0,5.4,8.14C1.72,9,0,10.07,0,11.62s1.72,2.66,5.4,3.49A56,56,0,0,0,17.06,16.2a55.83,55.83,0,0,0,11.66-1.09,14.14,14.14,0,0,0,3.91-1.36c4.72.48,9.46,1.39,10.64,6.12v.46c0,2.35,2.17,4.25,4.85,4.25h5.3A3.44,3.44,0,0,1,53.39,24.12ZM16.72,13.64c-9.17,0-14.78-.54-14.57-2.07,0-.07-.06-.12-.06-.19C2.16,9.66,7.93,8,17.18,8c9.43,0,15.55,1.76,15.37,3.65C32,13.24,26.15,13.64,16.72,13.64Zm26.55-3.35a3.66,3.66,0,0,1-1.39,2.59c-1.56.94-4.44.67-7-.5a1.44,1.44,0,0,1-.75-.75h0a2.45,2.45,0,0,0,0-.38,1.3,1.3,0,0,1,1.32-1.15c4.12-.48,6.33-.55,7.86-3.2Z"/><path class="cls-2" d="M221.28,8A62.91,62.91,0,0,0,198,8a12.39,12.39,0,0,0-4.24,1.58c-4.68-.59-9.5-2-10.52-6.43A3.1,3.1,0,0,0,181.6,1a5.21,5.21,0,0,0-3.15-1h-5.67a6.17,6.17,0,0,1,0,1h5.71c1.61,0,2.83,1.89,2.83,3.3,0,0,1.17,7.23-.21,12.63-.59,2.31-2,4.46-5.39,4.46h-3a3.31,3.31,0,0,1,.05.55c0,.91.06,1.8.08,2.69h5.54c2.68,0,4.85-1.9,4.85-4.25v-.08c.95-5.19,5.86-6.15,10.76-6.65A14.18,14.18,0,0,0,198,15a55.83,55.83,0,0,0,11.66,1.09A55.83,55.83,0,0,0,221.28,15c3.69-.83,5.41-1.94,5.41-3.49S225,8.82,221.28,8Zm-28.73,3.49a1.41,1.41,0,0,1-.75.75c-2.56,1.17-5.43,1.44-7,.5-1-.6-1.36-2.05-1.5-3.42V6.53c1.54,2.86,3.75,2.91,8,3.41a1.32,1.32,0,0,1,1.33,1.15,1.65,1.65,0,0,0,0,.38Zm17.42,2c-9.44,0-15.25-.4-15.83-2-.19-1.89,5.93-3.65,15.37-3.65,9.25,0,15,1.69,15.09,3.41,0,.07-.07.12-.06.19C224.75,13,219.13,13.49,210,13.49Z"/><path class="cls-3" d="M66.92,2.57l6.69,16.16A4.21,4.21,0,0,0,74.3,20a2,2,0,0,0,.88.48l1.41.37,0,.56-3.66,0-4,0-.06-.56,1.43-.37a1,1,0,0,0,.43-.21.42.42,0,0,0,.13-.35,2,2,0,0,0-.16-.69c-.1-.29-.25-.67-.44-1.14l-1.42-3.54H61.56L60,18l-.5,1.18a2,2,0,0,0-.18.69.41.41,0,0,0,.14.33,1.13,1.13,0,0,0,.44.19l1.4.36,0,.59-3.5,0-3,0-.07-.56,1.52-.41a1.63,1.63,0,0,0,.84-.49,5.4,5.4,0,0,0,.6-1l7.7-16.12Zm-4.8,10.74h6.2L65.39,6Z"/><path class="cls-4" d="M97.21,2.85c1,0,1.8,0,2.57,0s1.74,0,3,0l.06.57-1.89.51a.46.46,0,0,0-.37.45c0,.59,0,1.32,0,2.2V17.29c0,1,0,1.91,0,2.63,0,.2.15.34.42.41l1.81.49,0,.56-3.8,0c-1.19,0-2.36,0-3.52,0l-.06-.56,1.73-.47a.45.45,0,0,0,.38-.46c0-.69,0-1.56,0-2.6V5.85l-7.47,15.5-1.1.1L81.5,5.85V17.29c0,1,0,1.91,0,2.6a.46.46,0,0,0,.4.46l1.68.47,0,.56-3,0-3.12,0-.06-.56,1.85-.49c.26-.07.4-.21.41-.41,0-.72,0-1.59,0-2.63V6.58c0-.88,0-1.61,0-2.2a.46.46,0,0,0-.36-.45L77.5,3.42l0-.57c1.29,0,2.32,0,3.07,0s1.77,0,2.7,0l7,14.49Z"/><path class="cls-5" d="M115.65,2.57l6.69,16.16A4.49,4.49,0,0,0,123,20a2,2,0,0,0,.88.48l1.42.37,0,.56-3.66,0-4,0-.06-.56,1.43-.37a1.14,1.14,0,0,0,.43-.21.42.42,0,0,0,.13-.35,2,2,0,0,0-.16-.69c-.1-.29-.25-.67-.44-1.14l-1.42-3.54h-7.26L108.71,18l-.5,1.18a2,2,0,0,0-.18.69.41.41,0,0,0,.14.33,1.15,1.15,0,0,0,.43.19l1.4.36,0,.59-3.49,0-3,0-.07-.56,1.52-.41a1.63,1.63,0,0,0,.84-.49,5.4,5.4,0,0,0,.6-1l7.7-16.12Zm-4.81,10.74h6.21L114.12,6Z"/><path class="cls-6" d="M131.81,6.52V17.26c0,1,0,1.94,0,2.9h7.34l1.93-3.51.68-.09-.34,4.73-.09.09-7.21,0h-3.78l-3.74,0-.06-.56,1.85-.49a.46.46,0,0,0,.41-.41c0-.35,0-.75,0-1.18s0-.92,0-1.45V6.58c0-.45,0-.86,0-1.22s0-.69,0-1a.46.46,0,0,0-.36-.45l-1.87-.51,0-.57c1.3,0,2.54,0,3.74,0s2.45,0,3.73,0l.06.57-1.86.49a.44.44,0,0,0-.4.41c0,.31,0,.75,0,1.35S131.81,6.54,131.81,6.52Z"/><path class="cls-7" d="M149,17.29c0,1,0,1.89,0,2.56,0,.21.15.35.4.41l2.07.56,0,.56-4,0-3.74,0-.06-.56,1.85-.49c.27-.07.4-.21.41-.41,0-.72,0-1.59,0-2.63V6.58c0-.45,0-.86,0-1.22s0-.69,0-1a.46.46,0,0,0-.36-.45l-1.87-.51,0-.57c1.3,0,2.54,0,3.74,0h3.66c2.25,0,4.62,0,7.12,0l.09.11L157.45,7l-.61.09-.93-3H149v7.54h1.44l3.49,0a.5.5,0,0,0,.52-.35L155,9.47l.73,0c0,1.24-.05,2.15-.05,2.74s0,1.47.05,2.69l-.73.05-.63-1.81a.48.48,0,0,0-.45-.35l-3.56,0H149Z"/><path class="cls-8" d="M165.58,17.29c0,.53,0,1,0,1.44s0,.82,0,1.18.19.37.53.44l1.7.47,0,.56-3.73,0-3.74,0-.06-.56,1.85-.49a.47.47,0,0,0,.41-.41c0-.35,0-.75,0-1.18s0-.92,0-1.45V6.58c0-.45,0-.86,0-1.22s0-.69,0-1a.46.46,0,0,0-.36-.45l-1.87-.51,0-.57c1.3,0,2.54,0,3.74,0s2.45,0,3.73,0l.06.57L166,3.91a.44.44,0,0,0-.4.41c0,.31,0,.64,0,1s0,.76,0,1.19Z"/><path class="cls-9" d="M82.16,37.28l-6.71,9.8Q72.76,51,71.14,53.49c-1.08,1.65-1.84,2.88-2.29,3.7a4.53,4.53,0,0,0-.68,1.72,1.17,1.17,0,0,0,.2.71c.13.2.4.29.81.29a6.36,6.36,0,0,0,2.55-.59,8.24,8.24,0,0,0,2.43-1.67A8.67,8.67,0,0,0,76,55.1a7.54,7.54,0,0,0,.7-3.28,3.94,3.94,0,0,1,.24-1.59A1.05,1.05,0,0,1,78,49.71a.84.84,0,0,1,.81.46,2.11,2.11,0,0,1,.24,1A4.44,4.44,0,0,1,78.62,53a12.45,12.45,0,0,1-.92,1.73,12.7,12.7,0,0,1-1.07,1.47c-.36.44-.65.76-.85,1a1.28,1.28,0,0,0,.39,0,4.75,4.75,0,0,0,2-.48,6,6,0,0,0,1.73-1.17,8.82,8.82,0,0,0,.7-.69.27.27,0,0,1,.18-.12c.14,0,.22.07.22.2a.56.56,0,0,1-.18.29l-.52.51a6.64,6.64,0,0,1-4.55,1.92l-.33,0-.15,0q-.4.34-1,.81c-.44.3-.92.61-1.45.9a11.52,11.52,0,0,1-1.7.77,5.66,5.66,0,0,1-1.84.32,2.23,2.23,0,0,1-2-.75,3.12,3.12,0,0,1-.59-1.93,4.22,4.22,0,0,1,.66-2.15,19.64,19.64,0,0,1,1.42-2.09c.51-.65,1-1.21,1.42-1.67s.66-.75.66-.88,0-.08-.09-.08-.26.18-.59.54-.88.89-1.64,1.61c-.59.56-1,1-1.36,1.34l-.72.75a2.42,2.42,0,0,1-.33.31.28.28,0,0,1-.17.05c-.15,0-.22-.05-.22-.15a3.35,3.35,0,0,1,.57-.67q.57-.6,1.29-1.32c.48-.49,1-1,1.42-1.4l.92-.9a17,17,0,0,0,1.59-1.9q1-1.36,2.34-3.21t2.76-4c1-1.42,1.89-2.84,2.8-4.24Z"/><path class="cls-10" d="M96.51,49.9a12.35,12.35,0,0,0-.9,1.06q-.6.75-1.29,1.68c-.47.63-.94,1.29-1.42,2s-.93,1.35-1.34,2-.73,1.21-1,1.69a2.7,2.7,0,0,0-.37,1.08c0,.35.25.53.74.53a4.83,4.83,0,0,0,2.65-1.32,43.21,43.21,0,0,0,3.56-3.28l.48-.52a.28.28,0,0,1,.18-.1.24.24,0,0,1,.19.08.23.23,0,0,1,.07.16,1.23,1.23,0,0,1-.24.28l-.59.6-.77.76c-.28.29-.54.54-.8.77a26.29,26.29,0,0,1-2.76,2.21,4,4,0,0,1-2.1.82,1.87,1.87,0,0,1-1.4-.54,3.07,3.07,0,0,1-.53-2.11,2.19,2.19,0,0,1,0-.36c0-.11,0-.22,0-.33-.32.29-.71.62-1.16,1a17.29,17.29,0,0,1-1.42,1.1,11.6,11.6,0,0,1-1.49.88,3.1,3.1,0,0,1-1.35.36,2.71,2.71,0,0,1-1.38-.31,2.22,2.22,0,0,1-.85-.78,2.85,2.85,0,0,1-.42-1.11,7.93,7.93,0,0,1-.11-1.29,5.37,5.37,0,0,1,.07-.9q.06-.43.15-.9a.15.15,0,0,0-.13.06.14.14,0,0,1-.13,0c-.12,0-.18-.06-.18-.19a.34.34,0,0,1,.14-.23l.56-.57a14,14,0,0,1,2-1.77A17.91,17.91,0,0,1,85.46,51a11.67,11.67,0,0,1,2.37-1,8.45,8.45,0,0,1,2.33-.35,1.77,1.77,0,0,1,1.45.55A2.12,2.12,0,0,1,92,51.59a3,3,0,0,1-.13,1l.09.08c.38-.53.68-1,.9-1.34s.4-.63.54-.82a1.91,1.91,0,0,1,.42-.43,1,1,0,0,1,.55-.13Zm-14,8.78a1.53,1.53,0,0,0,.24.89.87.87,0,0,0,.77.34,4.41,4.41,0,0,0,2.31-.9,16,16,0,0,0,2.63-2.2,15.72,15.72,0,0,0,2.16-2.75,4.92,4.92,0,0,0,.9-2.51,1.51,1.51,0,0,0-.33-1,1.28,1.28,0,0,0-1-.4,4.77,4.77,0,0,0-2.69.94A11.78,11.78,0,0,0,85,53.39a14,14,0,0,0-1.8,2.8A5.91,5.91,0,0,0,82.51,58.68Z"/><path class="cls-11" d="M114,37.28,98.69,60.22l-3,.15,7-9.93-.08-.08L102,51c-.25.25-.5.52-.76.82s-.54.58-.81.84l-.77.75c-.49.46-.88.83-1.16,1.11l-.63.65a2.15,2.15,0,0,1-.31.29.24.24,0,0,1-.13.06c-.11,0-.17-.08-.17-.23a.35.35,0,0,1,.11-.21,5.52,5.52,0,0,1,.5-.5c.26-.24.63-.61,1.11-1.09l2-2c.73-.74,1.37-1.42,1.93-2s1.07-1.25,1.55-1.86,1-1.25,1.4-1.9.94-1.37,1.47-2.16l1.74-2.65c.65-1,1.39-2.1,2.24-3.38Zm-1.31,14.65q-.7,0-.9-.36a2.55,2.55,0,0,1-.24-1,2,2,0,0,0-1.12.48,8.61,8.61,0,0,0-.89,1.14,4.84,4.84,0,0,1-1.6,1.32,6.84,6.84,0,0,1-2.08.74v.08a2.47,2.47,0,0,1,.86.33,3.49,3.49,0,0,1,.74.59A3.17,3.17,0,0,1,108,56a1.6,1.6,0,0,1,.2.69,2.21,2.21,0,0,1-.15.73c-.1.28-.21.56-.33.83s-.23.5-.33.7a1.26,1.26,0,0,0-.15.43.51.51,0,0,0,.2.4.68.68,0,0,0,.45.17,2.53,2.53,0,0,0,1.14-.32c.41-.22.82-.47,1.25-.75a13.54,13.54,0,0,0,1.16-.88l.83-.77c.61-.56,1.08-1,1.4-1.32s.56-.57.72-.75l.31-.35a.19.19,0,0,1,.15-.08c.17,0,.26.07.26.2a1.05,1.05,0,0,1-.2.27c-.13.15-.3.34-.52.55l-.72.73c-.27.27-.53.52-.79.75s-.8.73-1.25,1.11a16,16,0,0,1-1.37,1,11,11,0,0,1-1.36.75,3,3,0,0,1-1.18.28,1.87,1.87,0,0,1-1-.28,2.63,2.63,0,0,1-.72-.73,3.43,3.43,0,0,1-.42-.94,3.57,3.57,0,0,1-.13-.92,2.07,2.07,0,0,1,.13-.77,3.69,3.69,0,0,1,.31-.63l.31-.54a1.15,1.15,0,0,0,.13-.48.54.54,0,0,0-.27-.42.87.87,0,0,0-.52-.2,1.21,1.21,0,0,0-.72.28,1.73,1.73,0,0,1-1,.26c-.43,0-.65-.15-.65-.46a.56.56,0,0,1,.28-.4,2.41,2.41,0,0,1,1.25-.21,1.24,1.24,0,0,1,.33,0,2.59,2.59,0,0,0,.5,0,2.08,2.08,0,0,0,.72-.2,6.22,6.22,0,0,0,1-.53,9.58,9.58,0,0,0,1.09-.81,9.7,9.7,0,0,0,1-1,7.11,7.11,0,0,1,1.57-1.41,2.73,2.73,0,0,1,1.36-.35,2,2,0,0,1,1.2.33,1,1,0,0,1,.46.86.86.86,0,0,1-.37.76A1.37,1.37,0,0,1,112.69,51.93Z"/><path class="cls-12" d="M125.94,51.55a2.48,2.48,0,0,1-1.06,1.94A10.74,10.74,0,0,1,122.39,55a20.56,20.56,0,0,1-3,1.06,23.2,23.2,0,0,1-2.5.57,4.52,4.52,0,0,0-.12.64,3.41,3.41,0,0,0,0,.63,2.23,2.23,0,0,0,.42,1.55,1.94,1.94,0,0,0,1.42.48,6.29,6.29,0,0,0,2.49-.63,14.26,14.26,0,0,0,3.63-2.4c.84-.77,1.42-1.33,1.73-1.69s.5-.53.59-.53.21.08.21.23-.09.17-.28.38l-.72.75c-.29.29-.62.61-1,.94s-.71.62-1,.88a12.7,12.7,0,0,1-3,1.92,8,8,0,0,1-2.91.61,3.09,3.09,0,0,1-1.55-.35,3.15,3.15,0,0,1-1.07-.92,3.35,3.35,0,0,1-.63-1.3,5.3,5.3,0,0,1-.2-1.49,3.84,3.84,0,0,1,.06-.73,2.11,2.11,0,0,0,.07-.39s0-.07,0-.07l-.13.11a.23.23,0,0,1-.13-.07.22.22,0,0,1-.08-.16,1,1,0,0,1,.19-.26c.13-.16.29-.32.48-.51s.38-.34.55-.51l.39-.37A18.79,18.79,0,0,1,120,50.73a8.16,8.16,0,0,1,3.76-1,2.29,2.29,0,0,1,1.59.52A1.67,1.67,0,0,1,125.94,51.55Zm-2.19-1.38a3.8,3.8,0,0,0-1.93.63,12,12,0,0,0-2,1.56,13.14,13.14,0,0,0-1.73,2,6.28,6.28,0,0,0-1,1.84,11.24,11.24,0,0,0,2.41-.55A11.72,11.72,0,0,0,122,54.44a8.14,8.14,0,0,0,1.9-1.6,3,3,0,0,0,.76-1.94C124.62,50.41,124.33,50.17,123.75,50.17Z"/><path class="cls-13" d="M127.55,60.37c1.11-1.56,2.08-2.89,2.91-4s1.53-2,2.1-2.78,1-1.34,1.29-1.8a2.31,2.31,0,0,0,.44-1.07q0-.54-.75-.54a3.27,3.27,0,0,0-1.29.4,10.24,10.24,0,0,0-2.11,1.6c-.68.61-1.22,1.11-1.62,1.51s-.73.71-1,.94-.37.39-.48.48-.16.13-.19.13-.22-.06-.22-.19.08-.16.24-.35l.63-.65.86-.8c.3-.28.58-.56.85-.85a16.06,16.06,0,0,1,2.47-2,3.77,3.77,0,0,1,2-.67,1.56,1.56,0,0,1,1.27.55,2,2,0,0,1,.44,1.25,3.53,3.53,0,0,1-.31,1.31,11.12,11.12,0,0,1-.75,1.45,15.69,15.69,0,0,1-.91,1.38c-.32.44-.59.78-.79,1l.09.08a30.56,30.56,0,0,1,3.14-2.84,5.24,5.24,0,0,0,1.71-1.84,5.6,5.6,0,0,1,1-1.62,2.4,2.4,0,0,1,1.84-.76c.7,0,1.05.21,1.05.61a1.42,1.42,0,0,1-.77,1.1l-1.68,1.13a13.1,13.1,0,0,0-1.69,1.34,2.34,2.34,0,0,0-.76,1.73,1.23,1.23,0,0,0,.41.94,1.52,1.52,0,0,0,1,.36,2.93,2.93,0,0,0,2-.77,8.46,8.46,0,0,0,1.05-1c.2-.27.35-.41.44-.41s.26.07.26.2-.13.21-.4.5l-.69.72a3.77,3.77,0,0,1-1.36.92,3.65,3.65,0,0,1-1.31.27,2.32,2.32,0,0,1-1.34-.4,1.26,1.26,0,0,1-.59-1.09,2.87,2.87,0,0,1,.22-1.17,3.38,3.38,0,0,1,.66-1l-.09-.08a38.86,38.86,0,0,0-3.32,3q-1.62,1.65-3.28,3.53Z"/><path class="cls-14" d="M160.53,49.71l-7.79,11.08.09.08A13.75,13.75,0,0,0,155,59.76c.68-.44,1.34-.89,1.95-1.36s1.17-.95,1.68-1.44,1-.93,1.38-1.34l.74-.79a.43.43,0,0,1,.31-.14c.11,0,.17.07.17.2a.89.89,0,0,1-.19.25l-.48.51c-.19.21-.4.42-.62.64l-.59.59c-.61.59-1.21,1.11-1.79,1.58s-1.16.87-1.73,1.24-1.14.71-1.72,1-1.2.6-1.84.88a42.49,42.49,0,0,1-6.39,8c-2,1.82-3.63,2.74-4.94,2.74a2.32,2.32,0,0,1-1.53-.52,1.93,1.93,0,0,1-.61-1.55,3.31,3.31,0,0,1,.9-2.11,13.43,13.43,0,0,1,2.49-2.23A42.16,42.16,0,0,1,146,63.52c1.48-.85,3.12-1.73,4.89-2.65l3.81-6.37-.09-.07c-.2.23-.49.53-.85.92s-.78.79-1.25,1.22-1,.88-1.51,1.31-1.08.83-1.62,1.19a12.46,12.46,0,0,1-1.52.88,3,3,0,0,1-1.25.34,1.61,1.61,0,0,1-1.36-.7,2.47,2.47,0,0,1-.52-1.48,4,4,0,0,1,.65-2.09,19.21,19.21,0,0,1,1.45-2c.52-.66,1-1.26,1.44-1.82a2.58,2.58,0,0,0,.65-1.5c0-.33-.23-.5-.7-.5a3.39,3.39,0,0,0-1.81.65,21,21,0,0,0-2.25,1.8L142.73,54c-.35.33-.61.59-.79.78s-.29.31-.35.37a.27.27,0,0,1-.18.07c-.11,0-.17-.06-.17-.19a.24.24,0,0,1,0-.11,2.1,2.1,0,0,1,.27-.31c.14-.16.36-.37.65-.65s.69-.68,1.18-1.19a14.82,14.82,0,0,1,3-2.46,4.46,4.46,0,0,1,1.9-.61,1.66,1.66,0,0,1,1.47.67,2.56,2.56,0,0,1,.46,1.44,4.12,4.12,0,0,1-.66,2.13A21.51,21.51,0,0,1,148.15,56c-.52.66-1,1.28-1.44,1.84a2.49,2.49,0,0,0-.66,1.38c0,.38.2.57.61.57a3.63,3.63,0,0,0,1.66-.55,13.6,13.6,0,0,0,2.1-1.46c.73-.6,1.48-1.27,2.26-2s1.49-1.48,2.16-2.21,1.26-1.42,1.77-2.07a15,15,0,0,0,1.12-1.59ZM150.47,61.6c-2,1.12-3.66,2.12-5,3A32.54,32.54,0,0,0,142.12,67a9.12,9.12,0,0,0-1.82,1.89,3,3,0,0,0-.55,1.58,1.45,1.45,0,0,0,.38,1.11,1.3,1.3,0,0,0,.93.34,3.81,3.81,0,0,0,1.82-.53A9.43,9.43,0,0,0,145,69.58a26.31,26.31,0,0,0,2.54-3.17,55.78,55.78,0,0,0,2.93-4.77Z"/></g></g></svg>
